<?xml version="1.0" encoding="utf-8"?>
<!-- Svg Vector Icons : http://www.onlinewebfonts.com/icon -->
<!DOCTYPE svg PUBLIC "-//W3C//DTD SVG 1.1//EN" "http://www.w3.org/Graphics/SVG/1.1/DTD/svg11.dtd">
<svg version="1.1" xmlns="http://www.w3.org/2000/svg" xmlns:xlink="http://www.w3.org/1999/xlink" x="0px" y="0px" width="32px" height="32px" viewBox="0 0 256 256" enable-background="new 0 0 256 256" xml:space="preserve">
<metadata> Svg Vector Icons : http://www.onlinewebfonts.com/icon </metadata>
<g><g><g><path fill="#000000" d="M116.3,10.5c-9.7,0.8-19.6,3.4-27.3,7c-8.7,4.1-15.3,9.9-18.3,16L69,36.8v54.7v54.7l1.3,2.8c1.5,3.1,4.3,5.9,7.4,7.3c1.7,0.8,3.4,1,8.4,1.2l6.3,0.2l-16.8,40.3c-9.2,22.2-17.5,42-18.4,44.1l-1.6,3.8h7.7h7.8l2.2-5.2c1.2-2.8,2.6-6.1,3.1-7.4l1-2.2l50.5,0.1l50.5,0.1l3,7.2l3,7.3h7.9h7.9l-0.7-1.8c-0.4-0.9-8.6-20.5-18.2-43.4c-9.6-23-17.6-42-17.7-42.5c-0.2-0.7,0.5-0.8,5.9-1c5-0.1,6.5-0.3,8.3-1.2c3.2-1.4,5.9-4.1,7.4-7.3l1.3-2.8V91.5V36.8l-1.7-3.3c-3-6.1-9.7-11.9-18.3-16C153.5,11.4,135.3,8.8,116.3,10.5z M138.6,25.6c2.4,1.2,3.8,3.6,3.8,6.5c0,2.9-1.4,5.3-3.8,6.5c-1.6,0.8-2.7,0.9-10.8,0.9s-9.2-0.1-10.8-0.9c-5.1-2.6-5.2-10.2-0.1-12.9c1.5-0.8,2.7-0.9,10.8-0.9C135.9,24.7,137,24.8,138.6,25.6z M171.1,55.2c0.8,0.9,0.9,2,0.9,21.6c0,23.5,0.2,22.2-4.1,25.4c-11.6,8.7-31.3,12.8-51,10.4c-10.3-1.2-19.1-4-26.5-8.4c-4.2-2.5-6-4.4-6.7-7c-0.3-1.2-0.5-8.5-0.4-21.4c0.1-18.5,0.2-19.6,1-20.5l0.9-1h42.5h42.5L171.1,55.2z M94.3,128.9c2.4,1.2,3.8,3.6,3.8,6.5s-1.4,5.3-3.8,6.5c-5,2.6-10.6-0.9-10.6-6.5C83.7,129.7,89.3,126.3,94.3,128.9z M168.1,128.9c2.4,1.2,3.8,3.6,3.8,6.5s-1.4,5.3-3.8,6.5c-5,2.6-10.6-0.9-10.6-6.5C157.4,129.7,163,126.3,168.1,128.9z M152.9,170.3c2.9,7,5.7,13.6,6.1,14.8l0.8,2h-32H95.9l5.7-13.7c3.2-7.5,5.9-14.2,6.2-14.8l0.4-1h19.7h19.7L152.9,170.3z M169.1,209l3,7.2l-44,0.1c-24.2,0-44.1,0-44.2-0.1c-0.1-0.1,0.9-2.7,2.2-5.9c1.3-3.1,2.7-6.4,3-7.2l0.6-1.5h38.2H166L169.1,209z"/></g></g></g>
</svg>